HIERARCHY
ROOT root
{
	OFFSET	0	13.1	24.9
	CHANNELS 6  Xposition Yposition Zposition Xrotation Yrotation Zrotation
	JOINT spine_1
	{
		OFFSET	0	9.99999	0
		CHANNELS 3  Xrotation Yrotation Zrotation
		JOINT spine_2
		{
			OFFSET	0	112	-10
			CHANNELS 3  Xrotation Yrotation Zrotation
			JOINT spine_3
			{
				OFFSET	0	206.5	19.3
				CHANNELS 3  Xrotation Yrotation Zrotation
				JOINT spine_4
				{
					OFFSET	0	110.4	14.6
					CHANNELS 3  Xrotation Yrotation Zrotation
					JOINT neck_1
					{
						OFFSET	0	71.8	-50.3
						CHANNELS 3  Xrotation Yrotation Zrotation
						JOINT neck_2
						{
							OFFSET	0	86.2	-25.8
							CHANNELS 3  Xrotation Yrotation Zrotation
							JOINT head_ee
							{
								OFFSET	0	179.8	-8.7
								CHANNELS 3  Xrotation Yrotation Zrotation
								End Site
								{
									OFFSET	1	0	0
								}
							}
						}
					}
					JOINT left_clavicle
					{
						OFFSET	-43.2	22.4	-70.8
						CHANNELS 3  Xrotation Yrotation Zrotation
						JOINT left_shoulder
						{
							OFFSET	-93.9	-5.79999	48.7
							CHANNELS 3  Xrotation Yrotation Zrotation
							JOINT left_elbow
							{
								OFFSET	-291.4	-30.8	15.2
								CHANNELS 3  Xrotation Yrotation Zrotation
								JOINT left_lowarm_twist
								{
									OFFSET	-110.7	-3.89999	13.6
									CHANNELS 3  Xrotation Yrotation Zrotation
									JOINT left_hand
									{
										OFFSET	-110.7	-3.89999	13.6
										CHANNELS 3  Xrotation Yrotation Zrotation
										JOINT left_ee
										{
											OFFSET	-80.8	-5.10001	12.1
											CHANNELS 3  Xrotation Yrotation Zrotation
											End Site
											{
												OFFSET	1	0	0
											}
										}
									}
								}
							}
						}
					}
					JOINT right_clavicle
					{
						OFFSET	43.2	22.4	-70.8
						CHANNELS 3  Xrotation Yrotation Zrotation
						JOINT right_shoulder
						{
							OFFSET	93.9	-5.79999	48.7
							CHANNELS 3  Xrotation Yrotation Zrotation
							JOINT right_elbow
							{
								OFFSET	291.4	-30.8	15.2
								CHANNELS 3  Xrotation Yrotation Zrotation
								JOINT right_lowarm_twist
								{
									OFFSET	110.7	-3.89999	13.6
									CHANNELS 3  Xrotation Yrotation Zrotation
									JOINT right_hand
									{
										OFFSET	110.7	-3.89999	13.6
										CHANNELS 3  Xrotation Yrotation Zrotation
										JOINT right_ee
										{
											OFFSET	80.8	-5.10001	12.1
											CHANNELS 3  Xrotation Yrotation Zrotation
											End Site
											{
												OFFSET	1	0	0
											}
										}
									}
								}
							}
						}
					}
				}
			}
		}
	}
	JOINT left_hip
	{
		OFFSET	-82.8	-127.5	0.300001
		CHANNELS 3  Xrotation Yrotation Zrotation
		JOINT left_knee
		{
			OFFSET	-28.2	-396.7	2.2
			CHANNELS 3  Xrotation Yrotation Zrotation
			JOINT left_ankle
			{
				OFFSET	-11.7	-411.3	35.4
				CHANNELS 3  Xrotation Yrotation Zrotation
				JOINT left_toes
				{
					OFFSET	0	-60	-88.6
					CHANNELS 3  Xrotation Yrotation Zrotation
					JOINT left_foot_ee
					{
						OFFSET	-22.5	-16.5	-42.2
						CHANNELS 3  Xrotation Yrotation Zrotation
						End Site
						{
							OFFSET	1	0	0
						}
					}
				}
			}
		}
	}
	JOINT right_hip
	{
		OFFSET	82.8	-127.5	0.300001
		CHANNELS 3  Xrotation Yrotation Zrotation
		JOINT right_knee
		{
			OFFSET	28.2	-396.7	2.2
			CHANNELS 3  Xrotation Yrotation Zrotation
			JOINT right_ankle
			{
				OFFSET	11.7	-411.3	35.4
				CHANNELS 3  Xrotation Yrotation Zrotation
				JOINT right_toes
				{
					OFFSET	0	-60	-88.6
					CHANNELS 3  Xrotation Yrotation Zrotation
					JOINT right_foot_ee
					{
						OFFSET	22.5	-16.5	-42.2
						CHANNELS 3  Xrotation Yrotation Zrotation
						End Site
						{
							OFFSET	1	0	0
						}
					}
				}
			}
		}
	}
}
MOTION
Frames: 8
Frame Time: 0.02
3074.4 623.918 -772.921 -23.5968 39.0028 14.5868 6.13299 0.241128 0.958435 6.13349 0.179654 0.971834 6.13594 0.0771583 0.985283 6.13466 0.23179 0.960736 -13.8336 10.6 -1.42673 -14.1713 21.0839 2.04057 -0.0 0.0 -0.0 5.07943 -6.68853 9.53792 3.2477 9.16323 57.0026 2.23497 -47.9043 0.992937 72.1769 -2.96933 -8.10878 2.14056 -18.4388 6.42224 -0.0 0.0 -0.0 12.3943 13.624 -25.14 -23.2155 -7.16185 -65.3334 0.197411 5.58543 -0.00962983 -71.3393 6.71705 -5.31227 5.02419 14.6247 -28.5831 0.0 0.0 0.0 3.23114 36.822 10.0027 -12.7784 0.311772 1.9322 39.8194 -8.69798 -4.9824 -23.8645 0.0 0.0 -0.0 0.0 -0.0 55.0586 24.2212 -12.7109 -6.59013 -0.2147 -0.988047 0.172151 1.6135 0.0255727 -25.3834 0.0 0.0 0.0 0.0 0.0 
3046.86 619.884 -780.454 -22.2841 40.0579 13.8988 5.37319 0.315792 0.879799 5.37358 0.25917 0.898109 5.37724 0.151749 0.922355 5.37618 0.295508 0.886818 -13.2582 9.28471 -1.2842 -13.4902 18.4731 1.63562 -0.0 0.0 -0.0 5.23079 -5.60562 9.90002 -0.0929634 5.39285 58.0718 2.4721 -50.7574 1.17285 77.5321 -3.55706 -8.46457 1.71681 -15.5828 4.88799 -0.0 0.0 -0.0 12.4157 13.394 -25.1939 -23.2889 -8.43467 -64.283 0.200524 5.67293 -0.00993524 -71.5052 6.73824 -5.31323 5.05759 16.4419 -27.8005 0.0 0.0 0.0 3.65293 36.2689 9.11787 -17.6348 0.316294 2.67707 38.537 -13.3985 -4.98566 -21.4279 0.0 0.0 -0.0 0.0 -0.0 54.4884 24.9635 -12.2519 -12.3797 -0.308598 -1.87111 0.532959 8.21042 0.0812832 -16.2085 0.0 0.0 0.0 0.0 0.0 
3021.01 616.509 -791.212 -21.2649 41.4778 13.2495 4.85454 0.327994 0.832548 4.85488 0.274354 0.85173 4.85867 0.164328 0.879606 4.85771 0.301179 0.842619 -11.7042 8.17424 -2.1917 -11.8345 16.9019 0.179197 -0.0 0.0 -0.0 5.43732 -4.82415 10.3541 -1.9644 2.68205 58.1603 2.56446 -51.7823 1.2449 81.6664 -4.03202 -8.7009 1.50475 -13.5352 4.37202 -0.0 0.0 -0.0 11.9602 14.1395 -24.1337 -22.7951 -10.0556 -65.0205 0.201338 5.69581 -0.0100158 -71.6193 6.75283 -5.31385 5.09522 17.9115 -27.2254 0.0 0.0 0.0 2.08544 34.4901 9.19533 -19.5769 0.300433 2.97461 37.835 -16.3851 -5.01533 -21.0319 0.0 0.0 -0.0 0.0 -0.0 54.2177 25.5672 -11.8446 -16.4078 -0.321113 -2.48889 -1.38221 12.4171 -0.217193 -8.10964 0.0 0.0 0.0 0.0 0.0 
2997.23 621.075 -801.797 -21.1548 42.4836 13.4751 4.53129 0.345737 0.857415 4.53165 0.290479 0.877676 4.53583 0.171925 0.908367 4.53482 0.313222 0.869819 -9.6932 7.30265 -2.95761 -9.73261 15.738 -1.09628 -0.0 0.0 -0.0 5.8276 -4.08819 11.1726 -3.83657 0.92835 58.8758 2.43249 -50.3035 1.14227 84.5074 -4.36763 -8.84316 1.34487 -12.1402 3.90536 -0.0 0.0 -0.0 11.9235 14.5368 -24.0383 -22.1155 -11.1628 -65.8441 0.20516 5.8032 -0.0103987 -71.6949 6.76248 -5.31425 5.09237 18.8892 -26.6272 0.0 0.0 0.0 1.46416 32.5317 9.21743 -20.8969 0.283899 3.17648 37.2001 -18.5673 -5.03452 -20.9189 0.0 0.0 -0.0 0.0 -0.0 53.6474 25.6764 -12.1456 -19.2273 -0.304033 -2.92109 -2.68289 15.3725 -0.431992 -2.23051 0.0 0.0 0.0 0.0 0.0 
2966.29 627.31 -821.878 -20.5838 42.0325 12.1166 4.47396 0.504285 1.07909 4.47451 0.434602 1.10899 4.48253 0.283169 1.15695 4.48096 0.462323 1.09772 -6.25931 7.02281 -3.33647 -6.19188 15.4379 -2.01941 -0.0 0.0 -0.0 6.29387 -3.08182 12.1434 -5.22365 0.671199 59.601 2.1123 -46.2924 0.903069 85.3472 -4.46815 -8.88202 1.32975 -11.2205 4.20353 -0.0 0.0 -0.0 12.5951 16.9107 -25.4886 -19.667 -12.7898 -65.4087 0.19662 5.56318 -0.00955304 -71.9988 6.80131 -5.31572 5.08588 18.5814 -26.7618 0.0 0.0 0.0 1.20035 30.5102 8.57336 -22.1482 0.263936 3.36744 36.7897 -16.5028 -4.91999 -21.7801 0.0 0.0 -0.0 0.0 -0.0 51.6094 26.0133 -11.573 -20.9274 -0.283462 -3.18114 -1.36714 19.0059 -0.226217 1.7763 -0.0 -0.0 0.0 0.0 0.0 
2940.98 632.712 -837.271 -19.8946 40.8285 11.2703 4.36788 0.619173 1.23636 4.36857 0.539252 1.27325 4.38008 0.362681 1.33432 4.37804 0.568843 1.26031 -4.71273 7.09999 -3.75734 -4.587 15.8637 -2.65444 -0.0 0.0 -0.0 6.1832 -0.0108216 11.9781 -6.95719 1.20932 60.3013 1.89895 -43.2449 0.752766 85.1428 -4.44363 -8.87269 1.37228 -10.7567 4.69251 -0.0 0.0 -0.0 12.5829 17.8498 -25.4125 -19.9398 -13.1596 -66.8406 0.23548 6.65362 -0.0136882 -73.0873 6.94043 -5.31927 4.91947 18.1876 -25.7739 0.0 0.0 0.0 1.12585 28.6737 8.0503 -23.035 0.247264 3.5025 35.9162 -13.8535 -4.75207 -22.7848 0.0 0.0 -0.0 0.0 -0.0 50.1563 26.3331 -10.9743 -22.1145 -0.264528 -3.3623 0.76739 21.5751 0.129378 5.04334 -0.0 -0.0 0.0 0.0 0.0 
2914.85 637.475 -851.759 -18.3759 40.0354 10.2135 4.12743 0.420556 1.19341 4.12815 0.343769 1.21775 4.13502 0.171052 1.25372 4.13301 0.366893 1.21098 -5.68179 6.80445 -5.26398 -5.53373 16.4476 -4.1054 -0.0 0.0 -0.0 5.97632 6.88109 11.6023 -7.97808 -0.501616 60.8652 1.62893 -38.8978 0.575234 84.4672 -4.36283 -8.84127 1.74481 -11.4008 6.93632 -0.0 0.0 -0.0 12.7238 18.4275 -25.7061 -19.7271 -12.6615 -68.2259 0.277447 7.82584 -0.0189774 -74.7388 7.1515 -5.31958 4.62096 14.9533 -25.3951 0.0 0.0 0.0 5.23022 27.1704 6.88019 -32.3401 -0.0526577 4.8975 39.0336 -12.1438 -4.99547 -24.0099 0.0 0.0 -0.0 0.0 -0.0 48.5263 26.2518 -10.9024 -22.9228 -0.249488 -3.48543 4.61285 21.4796 0.767594 6.23974 -0.0 -0.0 0.0 0.0 0.0 
2893.76 640.801 -862.325 -17.6738 39.5865 9.2948 4.17356 0.416952 1.24725 4.17436 0.336748 1.27125 4.18133 0.157713 1.3056 4.17914 0.361912 1.26431 -6.3413 6.54271 -5.67567 -6.20096 16.2563 -4.47087 -0.0 0.0 -0.0 5.8382 11.7966 11.2829 -8.34805 -1.61117 60.9472 1.47158 -36.089 0.479433 83.9207 -4.29776 -8.81515 2.01485 -11.8438 8.57675 -0.0 0.0 -0.0 12.9821 20.8942 -26.137 -18.2351 -13.9556 -67.9437 0.274835 7.75307 -0.0186233 -75.5074 7.24969 -5.31764 4.64774 12.742 -26.7764 0.0 0.0 0.0 11.2173 26.2433 4.68736 -42.4365 -0.629006 6.33595 39.115 -10.6828 -4.96545 -24.0202 0.0 0.0 -0.0 0.0 -0.0 46.2384 26.3537 -10.5092 -23.8203 -0.230756 -3.62187 9.45729 20.8923 1.53678 7.60447 -0.0 -0.0 0.0 0.0 0.0 
